# xmcd
#
# Track frame offsets: 
#        150
#        11741
#        24261
#        35114
#        44217
#        55760
#        65717
#        76038
#        86247
#        94514
#        106645
#        117227
#        129259
#        140194
#        149579
#        159497
#        172975
#        182048
#        192534
#        203727
#        215334
#        223420
#        233619
#        243415
#        253947
#        265074
#        274653
#        284814
#        297256
#        307163
#        312352
#
# Disc length: 4288 seconds
#
# Revision: 0
# Processed by: cddbd v1.5.2PL0 Copyright (c) Steve Scherf et al.
# Submitted via: ExactAudioCopy v0.95b3
#
DISCID=e110be1f
DTITLE=The Beatles  - A Hard Day's Night Deluxe (Purple Chick) - Disc 
DTITLE=2 - mono  FLAC
DYEAR=1900
DGENRE=
TTITLE0=A Hard Day's Night
TTITLE1=I Should Have Known Better
TTITLE2=If I Fell
TTITLE3=I'm Happy Just To Dance With You
TTITLE4=And I Love Her
TTITLE5=Tell Me Why
TTITLE6=Can't Buy Me Love
TTITLE7=Any Time At All
TTITLE8=I'll Cry Instead
TTITLE9=Things We Said Today
TTITLE10=When I Get Home
TTITLE11=You Can't Do That
TTITLE12=I'll Be Back
TTITLE13=Long Tall Sally
TTITLE14=I Call Your Name
TTITLE15=Slow Down
TTITLE16=Matchbox
TTITLE17=Sie Liebt Dich
TTITLE18=Komm, Gib Mir Deine Hand
TTITLE19=And I Love Her (US mono)
TTITLE20=Tell Me Why (movie)
TTITLE21=Any Time At All - RM3 (US mono)
TTITLE22=I'll Cry Instead (US mono)
TTITLE23=When I Get Home (US mono)
TTITLE24=I'll Be Back (US mono)
TTITLE25=Long Tall Sally (US mono)
TTITLE26=I Call Your Name (US mono)
TTITLE27=A Hard Day's Night (take 1) (Anthology mono)
TTITLE28=Can't Buy Me Love (takes 1&2) (Anthology edit)
TTITLE29=I'll Be Back (take 2) (Anthology mono)
TTITLE30=I'll Be Back (take 3) (Anthology mono)
EXTD=
EXTT0=
EXTT1=
EXTT2=
EXTT3=
EXTT4=
EXTT5=
EXTT6=
EXTT7=
EXTT8=
EXTT9=
EXTT10=
EXTT11=
EXTT12=
EXTT13=
EXTT14=
EXTT15=
EXTT16=
EXTT17=
EXTT18=
EXTT19=
EXTT20=
EXTT21=
EXTT22=
EXTT23=
EXTT24=
EXTT25=
EXTT26=
EXTT27=
EXTT28=
EXTT29=
EXTT30=
PLAYORDER=
